<svg width="60" height="60" viewBox="0 0 60 60" fill="none" xmlns="http://www.w3.org/2000/svg">
  <rect width="60" height="60" rx="8" fill="#F3F4F6"/>
  <path d="M30 20C29.2044 20 28.4413 20.3161 27.8787 20.8787C27.3161 21.4413 27 22.2044 27 23V37C27 37.7956 27.3161 38.5587 27.8787 39.1213C28.4413 39.6839 29.2044 40 30 40C30.7956 40 31.5587 39.6839 32.1213 39.1213C32.6839 38.5587 33 37.7956 33 37V23C33 22.2044 32.6839 21.4413 32.1213 20.8787C31.5587 20.3161 30.7956 20 30 20Z" fill="#9CA3AF"/>
  <path d="M22 26C21.2044 26 20.4413 26.3161 19.8787 26.8787C19.3161 27.4413 19 28.2044 19 29V37C19 37.7956 19.3161 38.5587 19.8787 39.1213C20.4413 39.6839 21.2044 40 22 40C22.7956 40 23.5587 39.6839 24.1213 39.1213C24.6839 38.5587 25 37.7956 25 37V29C25 28.2044 24.6839 27.4413 24.1213 26.8787C23.5587 26.3161 22.7956 26 22 26Z" fill="#9CA3AF"/>
  <path d="M38 26C37.2044 26 36.4413 26.3161 35.8787 26.8787C35.3161 27.4413 35 28.2044 35 29V37C35 37.7956 35.3161 38.5587 35.8787 39.1213C36.4413 39.6839 37.2044 40 38 40C38.7956 40 39.5587 39.6839 40.1213 39.1213C40.6839 38.5587 41 37.7956 41 37V29C41 28.2044 40.6839 27.4413 40.1213 26.8787C39.5587 26.3161 38.7956 26 38 26Z" fill="#9CA3AF"/>
</svg>